<svg width="280" height="350" viewBox="0 0 280 350" fill="none" xmlns="http://www.w3.org/2000/svg">
<mask id="mask0_2540_22714" style="mask-type:alpha" maskUnits="userSpaceOnUse" x="40" y="10" width="200" height="200">
<rect x="40" y="10" width="200" height="200" fill="#171717"/>
</mask>
<g mask="url(#mask0_2540_22714)">
<rect x="28.8594" y="-1.14062" width="222.281" height="222.281" fill="url(#paint0_linear_2540_22714)"/>
</g>
<g filter="url(#filter0_dddddd_2540_22714)">
<path d="M80.3772 100.893C80.3772 83.3965 80.3772 74.6483 83.7823 67.9655C86.7774 62.0871 91.5567 57.3079 97.435 54.3128C104.118 50.9077 112.866 50.9077 130.363 50.9077H149.263C166.76 50.9077 175.508 50.9077 182.191 54.3128C188.069 57.3079 192.848 62.0871 195.843 67.9655C199.248 74.6483 199.248 83.3965 199.248 100.893V119.794C199.248 137.29 199.248 146.038 195.843 152.721C192.848 158.599 188.069 163.379 182.191 166.374C175.508 169.779 166.76 169.779 149.263 169.779H130.363C112.866 169.779 104.118 169.779 97.435 166.374C91.5567 163.379 86.7774 158.599 83.7823 152.721C80.3772 146.038 80.3772 137.29 80.3772 119.794V100.893Z" fill="white"/>
<path d="M123.683 144.004C123.191 144.004 122.697 143.98 122.204 143.931C119.311 143.641 116.56 142.518 114.25 140.683C111.939 138.848 110.223 136.422 109.286 133.67C108.271 130.69 108.231 127.482 109.169 124.392C109.169 124.392 113.365 109.96 113.19 109.383L109.169 96.1383C108.231 93.0481 108.271 89.8395 109.286 86.8605C110.223 84.1081 111.939 81.6834 114.25 79.8475C116.561 78.0125 119.311 76.8887 122.204 76.5994C125.335 76.2858 128.469 76.9727 131.265 78.5871L163.386 97.1226C165.786 98.5074 167.753 100.5 169.076 102.886C170.319 105.128 170.976 107.68 170.976 110.266C170.976 112.851 170.319 115.403 169.076 117.645C167.753 120.031 165.786 122.024 163.386 123.408L131.265 141.944C128.909 143.303 126.314 144.006 123.683 144.006V144.004ZM123.676 88.6671C122.792 88.6671 122.118 89.099 121.798 89.3539C121.313 89.7393 120.24 90.8298 120.782 92.6121L124.803 105.857C125.678 108.741 125.678 111.791 124.803 114.675L120.782 127.92C120.24 129.702 121.312 130.793 121.798 131.178C122.283 131.564 123.588 132.361 125.201 131.43L157.322 112.895C158.693 112.105 158.84 110.793 158.84 110.266C158.84 109.739 158.693 108.428 157.322 107.637L125.201 89.101C124.65 88.7834 124.135 88.6671 123.677 88.6671H123.676Z" fill="url(#paint1_linear_2540_22714)"/>
</g>
<defs>
<filter id="filter0_dddddd_2540_22714" x="-24.6154" y="25.915" width="328.7" height="348.7" filterUnits="userSpaceOnUse" color-interpolation-filters="sRGB">
<feFlood flood-opacity="0" result="BackgroundImageFix"/>
<feColorMatrix in="SourceAlpha" type="matrix" values="0 0 0 0 0 0 0 0 0 0 0 0 0 0 0 0 0 0 127 0" result="hardAlpha"/>
<feOffset dy="2.76726"/>
<feGaussianBlur stdDeviation="1.1069"/>
<feColorMatrix type="matrix" values="0 0 0 0 0 0 0 0 0 0 0 0 0 0 0 0 0 0 0.0477948 0"/>
<feBlend mode="normal" in2="BackgroundImageFix" result="effect1_dropShadow_2540_22714"/>
<feColorMatrix in="SourceAlpha" type="matrix" values="0 0 0 0 0 0 0 0 0 0 0 0 0 0 0 0 0 0 127 0" result="hardAlpha"/>
<feOffset dy="6.6501"/>
<feGaussianBlur stdDeviation="2.66004"/>
<feColorMatrix type="matrix" values="0 0 0 0 0 0 0 0 0 0 0 0 0 0 0 0 0 0 0.0686618 0"/>
<feBlend mode="normal" in2="effect1_dropShadow_2540_22714" result="effect2_dropShadow_2540_22714"/>
<feColorMatrix in="SourceAlpha" type="matrix" values="0 0 0 0 0 0 0 0 0 0 0 0 0 0 0 0 0 0 127 0" result="hardAlpha"/>
<feOffset dy="12.5216"/>
<feGaussianBlur stdDeviation="5.00862"/>
<feColorMatrix type="matrix" values="0 0 0 0 0 0 0 0 0 0 0 0 0 0 0 0 0 0 0.085 0"/>
<feBlend mode="normal" in2="effect2_dropShadow_2540_22714" result="effect3_dropShadow_2540_22714"/>
<feColorMatrix in="SourceAlpha" type="matrix" values="0 0 0 0 0 0 0 0 0 0 0 0 0 0 0 0 0 0 127 0" result="hardAlpha"/>
<feOffset dy="22.3363"/>
<feGaussianBlur stdDeviation="8.93452"/>
<feColorMatrix type="matrix" values="0 0 0 0 0 0 0 0 0 0 0 0 0 0 0 0 0 0 0.101338 0"/>
<feBlend mode="normal" in2="effect3_dropShadow_2540_22714" result="effect4_dropShadow_2540_22714"/>
<feColorMatrix in="SourceAlpha" type="matrix" values="0 0 0 0 0 0 0 0 0 0 0 0 0 0 0 0 0 0 127 0" result="hardAlpha"/>
<feOffset dy="41.7776"/>
<feGaussianBlur stdDeviation="16.711"/>
<feColorMatrix type="matrix" values="0 0 0 0 0 0 0 0 0 0 0 0 0 0 0 0 0 0 0.122205 0"/>
<feBlend mode="normal" in2="effect4_dropShadow_2540_22714" result="effect5_dropShadow_2540_22714"/>
<feColorMatrix in="SourceAlpha" type="matrix" values="0 0 0 0 0 0 0 0 0 0 0 0 0 0 0 0 0 0 127 0" result="hardAlpha"/>
<feOffset dy="100"/>
<feGaussianBlur stdDeviation="40"/>
<feColorMatrix type="matrix" values="0 0 0 0 0 0 0 0 0 0 0 0 0 0 0 0 0 0 0.17 0"/>
<feBlend mode="normal" in2="effect5_dropShadow_2540_22714" result="effect6_dropShadow_2540_22714"/>
<feBlend mode="normal" in="SourceGraphic" in2="effect6_dropShadow_2540_22714" result="shape"/>
</filter>
<linearGradient id="paint0_linear_2540_22714" x1="28.8594" y1="110" x2="251.141" y2="110" gradientUnits="userSpaceOnUse">
<stop stop-color="#F8204F"/>
<stop offset="1" stop-color="#B751F8"/>
</linearGradient>
<linearGradient id="paint1_linear_2540_22714" x1="108.494" y1="110.265" x2="170.976" y2="110.265" gradientUnits="userSpaceOnUse">
<stop stop-color="#F8204F"/>
<stop offset="1" stop-color="#B751F8"/>
</linearGradient>
</defs>
</svg>
