<svg width="220" height="220" viewBox="0 0 220 220" fill="none" xmlns="http://www.w3.org/2000/svg">
<mask id="mask0_2540_22477" style="mask-type:alpha" maskUnits="userSpaceOnUse" x="10" y="10" width="200" height="200">
<rect x="10" y="10" width="200" height="200" fill="#171717"/>
</mask>
<g mask="url(#mask0_2540_22477)">
<rect x="-1.14059" y="-1.14062" width="222.281" height="222.281" fill="white"/>
</g>
<path d="M131.213 81.8298C130.918 81.5346 130.516 81.3674 130.099 81.3674H82.4131C81.5431 81.3674 80.837 82.0735 80.837 82.9435V130.629C80.837 131.048 81.0026 131.448 81.2994 131.743L88.2567 138.701C88.5519 138.996 88.9534 139.163 89.3704 139.163H137.056C137.926 139.163 138.632 138.457 138.632 137.587V89.9009C138.632 89.4822 138.467 89.0823 138.17 88.7871L131.213 81.8298Z" fill="#E41F66"/>
<path d="M180.027 81.3674C180.027 70.3113 175.722 59.916 167.902 52.0979C160.084 44.2784 149.689 39.9734 138.632 39.9734C127.576 39.9734 117.509 44.1472 109.735 51.734C101.96 44.1472 91.7197 39.9734 80.837 39.9734C69.9543 39.9734 59.3855 44.2784 51.5675 52.0979C43.7479 59.916 39.443 70.3113 39.443 81.3674C39.443 92.4236 43.7479 102.819 51.5675 110.637C59.3871 118.455 69.7809 122.761 80.837 122.761C89.8812 122.761 97.2384 130.119 97.2384 139.163C97.2384 148.207 89.8812 155.564 80.837 155.564C72.319 155.564 65.2974 149.038 64.5092 140.723C64.4278 139.864 63.7362 139.163 62.8736 139.163H41.005C40.1423 139.163 39.4399 139.863 39.4717 140.725C39.8575 151.195 44.1173 160.984 51.5675 168.432C59.3855 176.25 69.7809 180.557 80.837 180.557C91.8931 180.557 101.96 176.383 109.735 168.796C117.509 176.383 127.75 180.557 138.632 180.557C149.515 180.557 160.084 176.252 167.902 168.432C175.72 160.614 180.027 150.219 180.027 139.163C180.027 128.107 175.853 118.039 168.266 110.265C175.853 102.491 180.027 92.2502 180.027 81.3674ZM155.034 139.163C155.034 148.207 147.677 155.564 138.632 155.564C129.588 155.564 122.231 148.207 122.231 139.163C122.231 128.107 117.926 117.711 110.107 109.893C102.289 102.075 91.8931 97.7689 80.837 97.7689C71.7928 97.7689 64.4356 90.4117 64.4356 81.3674C64.4356 72.3232 71.7928 64.966 80.837 64.966C89.8812 64.966 97.2384 72.3232 97.2384 81.3674H122.231C122.231 72.3232 129.588 64.966 138.632 64.966C147.677 64.966 155.034 72.3232 155.034 81.3674C155.034 90.4117 147.677 97.7689 138.632 97.7689V122.761C147.677 122.761 155.034 130.119 155.034 139.163Z" fill="black"/>
</svg>
