<svg width="220" height="220" viewBox="0 0 220 220" fill="none" xmlns="http://www.w3.org/2000/svg">
<mask id="mask0_2540_22548" style="mask-type:alpha" maskUnits="userSpaceOnUse" x="10" y="10" width="200" height="200">
<rect x="10" y="10" width="200" height="200" fill="#171717"/>
</mask>
<g mask="url(#mask0_2540_22548)">
<rect x="-1.14059" y="-1.14062" width="222.281" height="222.281" fill="#1B1D21"/>
</g>
<path d="M170.753 107.427L139.631 89.4592C139.082 89.1421 138.408 89.1421 137.859 89.4592L106.739 107.427C106.19 107.744 105.853 108.329 105.853 108.961V140.388C105.853 141.021 105.516 141.605 104.967 141.922L81.6555 155.38C81.1073 155.697 80.4325 155.697 79.8842 155.38L56.5723 141.922C56.024 141.605 55.6866 141.021 55.6866 140.388V113.468C55.6866 112.835 56.024 112.251 56.5707 111.934L83.7377 96.2213C84.2844 95.9042 84.6218 95.32 84.6218 94.6874V79.9979C84.6218 79.3653 84.9592 78.7811 85.5075 78.464L108.821 65.0055C109.369 64.6884 110.044 64.6884 110.592 65.0055L135.209 79.2169C136.055 79.7058 137.139 79.4153 137.628 78.5687L139.762 74.8729C140.251 74.0263 139.96 72.9422 139.114 72.4533L110.592 55.9878C110.044 55.6707 109.369 55.6707 108.821 55.9878L77.7004 73.956C77.1522 74.2731 76.8148 74.8573 76.8148 75.4899V90.184C76.8148 90.8166 76.4774 91.4008 75.9307 91.7179L48.7621 107.429C48.2154 107.746 47.878 108.33 47.878 108.963V144.898C47.878 145.53 48.2154 146.114 48.7637 146.431L79.8857 164.4C80.434 164.717 81.1088 164.717 81.6571 164.4L112.779 146.431C113.327 146.114 113.665 145.53 113.665 144.898V113.471C113.665 112.838 114.002 112.254 114.551 111.937L137.861 98.4784C138.409 98.1613 139.084 98.1613 139.632 98.4784L162.944 111.937C163.492 112.254 163.83 112.838 163.83 113.471V140.388C163.83 141.021 163.492 141.605 162.944 141.922L138.328 156.133C137.481 156.622 137.191 157.706 137.68 158.553L139.813 162.249C140.302 163.095 141.386 163.386 142.233 162.897L170.754 146.43C171.303 146.113 171.64 145.529 171.64 144.896V108.96C171.64 108.327 171.303 107.743 170.754 107.426L170.753 107.427Z" fill="white"/>
<path d="M78.1144 140.213H83.4284C84.4063 140.213 85.1998 139.419 85.1998 138.442V133.127C85.1998 132.15 85.9933 131.356 86.9711 131.356H92.2852C93.263 131.356 94.0566 130.563 94.0566 129.585V124.271C94.0566 123.293 93.263 122.499 92.2852 122.499H86.9711C85.9933 122.499 85.1998 121.706 85.1998 120.728V115.414C85.1998 114.436 84.4063 113.643 83.4284 113.643H78.1144C77.1365 113.643 76.343 114.436 76.343 115.414V120.728C76.343 121.706 75.5495 122.499 74.5717 122.499H69.2576C68.2798 122.499 67.4863 123.293 67.4863 124.271V129.585C67.4863 130.563 68.2798 131.356 69.2576 131.356H74.5717C75.5495 131.356 76.343 132.15 76.343 133.127V138.442C76.343 139.419 77.1365 140.213 78.1144 140.213Z" fill="#C9DD03"/>
<path d="M138.745 113.646C136.299 113.646 134.317 115.628 134.317 118.074C134.317 120.52 136.299 122.503 138.745 122.503C141.191 122.503 143.173 120.52 143.173 118.074C143.173 115.628 141.191 113.646 138.745 113.646Z" fill="#F9461C"/>
<path d="M143.173 135.785C143.173 133.338 141.191 131.356 138.745 131.356C136.299 131.356 134.317 133.338 134.317 135.785C134.317 138.231 136.299 140.213 138.745 140.213C141.191 140.213 143.173 138.231 143.173 135.785Z" fill="#A44DC4"/>
<path d="M147.6 131.356C150.046 131.356 152.029 129.374 152.029 126.928C152.029 124.482 150.046 122.5 147.6 122.5C145.154 122.5 143.172 124.482 143.172 126.928C143.172 129.374 145.154 131.356 147.6 131.356Z" fill="#FDC82F"/>
<path d="M129.89 122.501C127.444 122.501 125.461 124.483 125.461 126.929C125.461 129.376 127.444 131.358 129.89 131.358C132.336 131.358 134.318 129.376 134.318 126.929C134.318 124.483 132.336 122.501 129.89 122.501Z" fill="#00C6D7"/>
</svg>
