<svg width="220" height="220" viewBox="0 0 220 220" fill="none" xmlns="http://www.w3.org/2000/svg">
<mask id="mask0_2540_22809" style="mask-type:alpha" maskUnits="userSpaceOnUse" x="10" y="10" width="200" height="200">
<rect x="10" y="10" width="200" height="200" fill="#171717"/>
</mask>
<g mask="url(#mask0_2540_22809)">
<rect x="-1.14059" y="-1.14062" width="222.281" height="222.281" fill="#5951F6"/>
</g>
<path d="M173.572 125.42L167.455 102.592V78.9603C167.455 75.516 164.653 72.7121 161.207 72.7121H159.448L157.4 65.0675C156.669 62.3402 154.189 60.436 151.366 60.436C150.821 60.436 150.277 60.5063 149.748 60.6485L104.725 72.7121H58.1122C54.6679 72.7121 51.864 75.516 51.864 78.9603V86.8767L50.1661 87.3312C46.8389 88.2232 44.8567 91.6565 45.7486 94.9837L51.864 117.808V141.442C51.864 144.888 54.6679 147.69 58.1122 147.69H59.8695L61.9188 155.336C62.6499 158.064 65.132 159.968 67.953 159.968C68.4997 159.968 69.0433 159.896 69.5728 159.755L114.6 147.69H161.207C164.653 147.69 167.455 144.888 167.455 141.442V133.527L169.153 133.072C170.766 132.64 172.113 131.606 172.947 130.161C173.783 128.716 174.003 127.032 173.572 125.42ZM162.769 141.442C162.769 142.306 162.071 143.004 161.207 143.004H58.1122C57.2499 143.004 56.5501 142.306 56.5501 141.442V78.9603C56.5501 78.098 57.2499 77.3982 58.1122 77.3982H161.207C162.071 77.3982 162.769 78.098 162.769 78.9603V141.442Z" fill="#1B1D21"/>
<g clip-path="url(#clip0_2540_22809)">
<path fill-rule="evenodd" clip-rule="evenodd" d="M124.828 89.9585H137.695L94.6417 130.572H81.7742L124.828 89.9585ZM94.6352 89.9585H81.7742L90.678 98.3612H103.539L94.6352 89.9585ZM124.806 130.572H137.667L128.764 122.169H115.903L124.806 130.572Z" fill="white"/>
</g>
<defs>
<clipPath id="clip0_2540_22809">
<rect width="55.921" height="40.613" fill="white" transform="translate(81.7742 89.9585)"/>
</clipPath>
</defs>
</svg>
