<svg width="220" height="220" viewBox="0 0 220 220" fill="none" xmlns="http://www.w3.org/2000/svg">
<mask id="mask0_2540_22507" style="mask-type:alpha" maskUnits="userSpaceOnUse" x="10" y="10" width="200" height="200">
<rect x="10" y="10" width="200" height="200" fill="#171717"/>
</mask>
<g mask="url(#mask0_2540_22507)">
<rect x="-1.14059" y="-1.14062" width="222.281" height="222.281" fill="black"/>
<path d="M177.215 86.893V71.3121L163.719 63.5217L150.223 71.3121V83.7581L147.51 85.3338L136.727 79.1099L123.232 86.9003V99.4325L120.602 100.959L109.736 94.6852L98.8689 100.959L96.2398 99.4325V86.9003L82.744 79.1099L71.9616 85.3338L69.2482 83.7581V71.3121L55.7523 63.5217L42.2546 71.3121V86.893L52.9985 93.0949V96.2719L42.2546 102.474V118.055L52.9985 124.257V127.434L42.2546 133.637V149.218L55.7505 157.009L69.2463 149.218V133.637L58.5025 127.435V124.258L69.2463 118.056V102.481L82.7422 110.272L93.3759 104.134L96.238 105.796V118.056L109.734 125.847L123.23 118.056V105.796L126.092 104.134L136.726 110.272L150.221 102.481V118.056L160.965 124.258V127.435L150.221 133.637V149.218L163.717 157.009L177.213 149.218V133.637L166.469 127.435V124.258L177.213 118.056V102.476L166.469 96.2738V93.0967L177.213 86.8948L177.215 86.893ZM69.2463 102.474L58.5025 96.2719V93.0949L66.4594 88.5017L69.2463 90.1196V102.472V102.474ZM150.223 102.474V90.1214L153.01 88.5035L160.967 93.0967V96.2738L150.223 102.476V102.474Z" fill="white"/>
<path fill-rule="evenodd" clip-rule="evenodd" d="M115.24 51.1436V44.7381L109.736 41.5354L104.232 44.7381V51.1436L109.736 54.3464L115.24 51.1436ZM118.909 73.7646V84.4405L109.736 89.7784L100.562 84.4405V73.7646L109.736 68.4267L118.909 73.7646ZM100.562 146.762V136.086L109.736 130.748L118.909 136.086V146.762L109.736 152.1L100.562 146.762ZM88.2462 60.319V66.7245L82.7422 69.9272L77.2381 66.7245V60.319L82.7422 57.1162L88.2462 60.319ZM77.2381 122.644V129.05L82.7422 132.252L88.2462 129.05V122.644L82.7422 119.441L77.2381 122.644ZM131.223 129.05V122.644L136.727 119.441L142.231 122.644V129.05L136.727 132.252L131.223 129.05ZM131.223 153.806V160.211L136.727 163.414L142.231 160.211V153.806L136.727 150.603L131.223 153.806ZM77.2381 160.211V153.806L82.7422 150.603L88.2462 153.806V160.211L82.7422 163.414L77.2381 160.211ZM104.232 169.387V175.792L109.736 178.995L115.24 175.792V169.387L109.736 166.184L104.232 169.387ZM142.231 60.319V66.7245L136.727 69.9272L131.223 66.7245V60.319L136.727 57.1162L142.231 60.319Z" fill="white" fill-opacity="0.5"/>
</g>
</svg>
