<svg width="220" height="220" viewBox="0 0 220 220" fill="none" xmlns="http://www.w3.org/2000/svg">
<mask id="mask0_2540_23205" style="mask-type:alpha" maskUnits="userSpaceOnUse" x="10" y="10" width="200" height="200">
<rect x="10" y="10" width="200" height="200" fill="#171717"/>
</mask>
<g mask="url(#mask0_2540_23205)">
<rect x="-1.14059" y="-1.14062" width="222.281" height="222.281" fill="black"/>
</g>
<path fill-rule="evenodd" clip-rule="evenodd" d="M109.752 63.6655C105.911 62.6789 101.885 62.1543 97.7354 62.1543C71.1518 62.1543 49.5962 83.6914 49.5962 110.265C49.5962 136.839 71.1518 158.376 97.7354 158.376C101.885 158.376 105.911 157.851 109.752 156.865C113.591 157.851 117.616 158.376 121.762 158.376C148.333 158.376 169.873 136.836 169.873 110.265C169.873 83.6942 148.333 62.1543 121.762 62.1543C117.616 62.1543 113.591 62.6789 109.752 63.6655ZM100.804 153.583C99.7904 153.654 98.7671 153.69 97.7354 153.69C73.737 153.69 54.2823 134.248 54.2823 110.265C54.2823 86.2823 73.737 66.8404 97.7354 66.8404C98.7671 66.8404 99.7904 66.8763 100.804 66.947C123.371 68.5204 141.189 87.3133 141.189 110.265C141.189 132.749 124.09 151.242 102.178 153.466C101.722 153.512 101.264 153.551 100.804 153.583Z" fill="#5B5D63"/>
<path d="M133.946 110.265C133.946 112.321 133.775 114.335 133.442 116.297C133.022 118.806 132.339 121.228 131.426 123.534C126.014 137.21 112.49 146.831 96.8157 146.441C77.665 145.963 62.0894 130.46 61.5414 111.322C60.9524 90.8883 77.4163 74.0781 97.7355 74.0781C112.502 74.0781 125.229 82.9537 130.861 95.6481C131.144 96.2826 130.67 96.9967 129.975 96.9967H118.402C118.084 96.9967 117.787 96.8351 117.606 96.5745C113.156 90.1501 105.67 85.9765 97.2382 86.1478C84.3036 86.4107 73.7904 96.9822 73.5997 109.908C73.409 122.834 84.306 134.393 97.7379 134.393C106.148 134.393 113.567 130.072 117.89 123.536C119.225 121.52 120.263 119.295 120.947 116.919C121.036 116.608 120.807 116.299 120.483 116.299H110.144C109.799 116.299 109.477 116.482 109.308 116.781C107.03 120.815 102.704 123.536 97.7379 123.536C92.7721 123.536 88.1058 120.596 85.909 116.299C84.982 114.49 84.4605 112.439 84.4605 110.268C84.4605 108.097 84.982 106.046 85.909 104.237C88.1058 99.9399 92.579 96.9991 97.7379 96.9991C102.897 96.9991 107.03 99.7204 109.308 103.754C109.477 104.053 109.799 104.237 110.144 104.237H132.619C133.101 104.237 133.507 104.594 133.577 105.069C133.823 106.767 133.951 108.502 133.951 110.268L133.946 110.265Z" fill="white"/>
</svg>
